<?xml version="1.0" encoding="UTF-8"?>
<svg xmlns="http://www.w3.org/2000/svg" xmlns:xlink="http://www.w3.org/1999/xlink" width="40pt" height="40pt" viewBox="0 0 40 40" version="1.1">
<g id="surface1">
<path style=" stroke:none;fill-rule:nonzero;fill:rgb(0%,0%,0%);fill-opacity:1;" d="M 38.753906 18.878906 L 4.082031 18.878906 L 14.457031 8.546875 C 14.941406 8.058594 14.941406 7.273438 14.457031 6.785156 C 13.96875 6.296875 13.179688 6.296875 12.695312 6.785156 L 0.359375 19.117188 C -0.121094 19.597656 -0.121094 20.402344 0.359375 20.878906 L 12.695312 33.214844 C 13.179688 33.703125 13.96875 33.703125 14.457031 33.214844 C 14.941406 32.726562 14.941406 31.9375 14.457031 31.453125 L 4.082031 21.371094 L 38.753906 21.371094 C 39.441406 21.371094 40 20.8125 40 20.125 C 40 19.4375 39.441406 18.878906 38.753906 18.878906 Z M 38.753906 18.878906 "/>
</g>
</svg>
