<svg id="calendar" xmlns="http://www.w3.org/2000/svg" width="50" height="50" viewBox="0 0 50 50">
  <g id="Group_3" data-name="Group 3">
    <g id="Group_2" data-name="Group 2">
      <g id="Group_1" data-name="Group 1">
        <circle id="Ellipse_1" data-name="Ellipse 1" cx="2" cy="2" r="2" transform="translate(35.418 18.861)" fill="#497dcd"/>
        <path id="Path_1" data-name="Path 1" d="M42.188,3.906H39.648V1.953a1.953,1.953,0,1,0-3.906,0V3.906H26.855V1.953a1.953,1.953,0,1,0-3.906,0V3.906H14.16V1.953a1.953,1.953,0,1,0-3.906,0V3.906H7.813A7.821,7.821,0,0,0,0,11.719V42.188A7.821,7.821,0,0,0,7.813,50H22.754a1.953,1.953,0,1,0,0-3.906H7.813a3.911,3.911,0,0,1-3.906-3.906V11.719A3.911,3.911,0,0,1,7.813,7.813h2.441V9.766a1.953,1.953,0,0,0,3.906,0V7.813h8.789V9.766a1.953,1.953,0,0,0,3.906,0V7.813h8.887V9.766a1.953,1.953,0,0,0,3.906,0V7.813h2.539a3.911,3.911,0,0,1,3.906,3.906V22.852a1.953,1.953,0,1,0,3.906,0V11.719A7.821,7.821,0,0,0,42.188,3.906Z" fill="#497dcd"/>
        <path id="Path_2" data-name="Path 2" d="M281.451,270A11.451,11.451,0,1,0,292.9,281.451,11.464,11.464,0,0,0,281.451,270Zm0,19.116a7.665,7.665,0,1,1,7.665-7.665A7.674,7.674,0,0,1,281.451,289.116Z" transform="translate(-242.902 -242.902)" fill="#497dcd"/>
        <path id="Path_3" data-name="Path 3" d="M375.637,333.88h-.852v-1.987a1.893,1.893,0,0,0-3.785,0v3.88a1.893,1.893,0,0,0,1.893,1.893h2.744a1.893,1.893,0,0,0,0-3.785Z" transform="translate(-334.344 -297.586)" fill="#497dcd"/>
        <circle id="Ellipse_2" data-name="Ellipse 2" cx="2" cy="2" r="2" transform="translate(27.139 18.861)" fill="#497dcd"/>
        <circle id="Ellipse_3" data-name="Ellipse 3" cx="2" cy="2" r="2" transform="translate(18.861 27.139)" fill="#497dcd"/>
        <circle id="Ellipse_4" data-name="Ellipse 4" cx="2" cy="2" r="2" transform="translate(10.582 18.861)" fill="#497dcd"/>
        <circle id="Ellipse_5" data-name="Ellipse 5" cx="2" cy="2" r="2" transform="translate(10.582 27.139)" fill="#497dcd"/>
        <circle id="Ellipse_6" data-name="Ellipse 6" cx="2" cy="2" r="2" transform="translate(10.582 35.418)" fill="#497dcd"/>
        <circle id="Ellipse_7" data-name="Ellipse 7" cx="2" cy="2" r="2" transform="translate(18.861 35.418)" fill="#497dcd"/>
        <circle id="Ellipse_8" data-name="Ellipse 8" cx="2" cy="2" r="2" transform="translate(18.861 18.861)" fill="#497dcd"/>
      </g>
    </g>
  </g>
</svg>
