<svg id="Component_1_1" data-name="Component 1 – 1" xmlns="http://www.w3.org/2000/svg" width="234" height="188.502" viewBox="0 0 234 188.502">
  <g id="Group_41" data-name="Group 41" transform="translate(-446.001 -825.654)">
    <g id="Group_40" data-name="Group 40">
      <g id="Group_39" data-name="Group 39">
        <path id="Path_88" data-name="Path 88" d="M512.841,925.99l8.031-4.637-4.331,4.611,4.34-2.505-.715,2.481.724-.418" fill="none" stroke="#5bd0f5" stroke-linecap="round" stroke-linejoin="round" stroke-width="1.435"/>
        <path id="Path_89" data-name="Path 89" d="M484.422,928.944l29.4-16.975-26.333,16.962,29.277-16.9-25.228,16.886L520.833,912l-26.024,16.9,26.032-15.029-22.735,15.175,22.744-13.131L498.116,932.3l22.748-13.133-22.739,16,14.018-8.093-14.01,10.649,16.233-9.372L498.141,940.5l17.07-9.855-17.064,11.672,17.069-9.855-17.06,12.859,17.069-9.854-17.06,12.423,17.068-9.854-11.62,9.9,11.629-6.714-7.785,6.7,7.792-4.5-3.5,4.477,3.509-2.026" fill="none" stroke="#5bd0f5" stroke-linecap="round" stroke-linejoin="round" stroke-width="1.435"/>
        <path id="Path_90" data-name="Path 90" d="M495.755,886.975,513.9,876.5l-13.317,10.752,13.317-7.688" fill="none" stroke="#5bd0f5" stroke-linecap="round" stroke-linejoin="round" stroke-width="1.435"/>
        <path id="Path_91" data-name="Path 91" d="M492.464,889.154l2.44-1.409-.091,2.764,2.173-1.254-2.167,3.339,19.08-11.016-19.073,13.888L513.9,884.453l-19.065,14.074L513.9,887.52l-19.056,14.216,19.056-11-19.05,13.344,19.05-11L494.854,905.87l19.046-11-19.04,13.065,19.04-10.993L494.865,909.8l19.035-10.99-17.289,13.148,17.289-9.982-15.884,11.56,15.884-9.171" fill="none" stroke="#5bd0f5" stroke-linecap="round" stroke-linejoin="round" stroke-width="1.435"/>
        <path id="Path_92" data-name="Path 92" d="M462.284,927.289l.72-.416-.679,2.751,4.82-2.783-2.982,3.693,28.722-16.582-24.307,16.582,28.733-16.589L471.9,930.534l42-24.248L476,930.534l37.886-21.874L479.6,930.534l34.24-19.769-30.8,19.768.7-.405" fill="none" stroke="#5bd0f5" stroke-linecap="round" stroke-linejoin="round" stroke-width="1.435"/>
        <path id="Path_93" data-name="Path 93" d="M464.416,887.477l.706-.408L464.9,889.2l3.7-2.134-.453,2.117,3.666-2.117.217,2.1,3.631-2.1.092,2.375.31-.179-2.388,4.55,7.89-4.555-9.081,7.063,12.238-7.066-13.993,10.765,18.654-10.77-20.616,14.921L490.1,891.855,467.53,906.8l21.263-12.276-22.337,14.562,21.238-12.262-23.062,16.173,21.208-12.244-22.594,15.26,21.08-12.171L462.333,919.19l20.17-11.645-20.168,14.148,18.447-10.651-18.446,12.908,17.28-9.976-13.042,10.684L485.1,913.965l-15.453,10.67,18.489-10.675-17.913,12.45,21.574-12.456" fill="none" stroke="#5bd0f5" stroke-linecap="round" stroke-linejoin="round" stroke-width="1.435"/>
        <path id="Path_94" data-name="Path 94" d="M494.812,882.754,513.9,871.733,494.857,886.04l19.055-11" fill="none" stroke="#5bd0f5" stroke-linecap="round" stroke-linejoin="round" stroke-width="1.435"/>
        <path id="Path_95" data-name="Path 95" d="M494.437,850.372l1-.575-2.952,4.664,8.106-4.68-10.274,9.211,15.984-9.229-18.115,13.682,23.729-13.7L487,865.917l26.9-15.53-28.966,19.853L513.9,853.515l-30.913,20.8L513.9,856.465l-32.181,20.5,32.182-18.581-33.7,21.764,33.7-19.458-34.983,22.151,34.985-20.2-36.173,22.707,36.174-20.885L480.084,887l33.828-19.531-29.376,19.514,29.377-16.961-25.8,16.947,6.1-3.524L492.3,887.08l.11-.063" fill="none" stroke="#5bd0f5" stroke-linecap="round" stroke-linejoin="round" stroke-width="1.435"/>
        <path id="Path_96" data-name="Path 96" d="M577.84,936.148l8.007-4.623-4.306,4.6,4.326-2.5-.7,2.473.722-.417" fill="none" stroke="#5bd0f5" stroke-linecap="round" stroke-linejoin="round" stroke-width="1.435"/>
        <path id="Path_97" data-name="Path 97" d="M587.584,897.849l3.135-1.81-.059,1.793,3.135-1.81.923,1.788,2.923-1.688" fill="none" stroke="#5bd0f5" stroke-linecap="round" stroke-linejoin="round" stroke-width="1.435"/>
        <line id="Line_5" data-name="Line 5" y1="0.41" x2="0.711" transform="translate(586.798 896.056)" fill="none" stroke="#5bd0f5" stroke-linecap="round" stroke-linejoin="round" stroke-width="1.435"/>
        <path id="Path_98" data-name="Path 98" d="M578.046,896l8.661-5-3.912,4.97,3.938-2.273-.676,2.253.716-.414" fill="none" stroke="#5bd0f5" stroke-linecap="round" stroke-linejoin="round" stroke-width="1.435"/>
        <path id="Path_99" data-name="Path 99" d="M553.307,866.933l22.186-12.809-17.932,12.712,19.846-11.458L559.85,867.486l18.825-10.869-16.847,12.275,18.394-10.62-17.268,11.888,18.194-10.5-17.172,12.278,18.228-10.524-17.554,12.218,18.327-10.581-17.5,13.175,18.545-10.707-18.249,12.253,18.779-10.842-18.47,13.379,19.086-11.02-18.842,14.123,19.317-11.153L566.472,886.11l19.549-11.287L566.59,888.917l19.682-11.364-19.628,13.459L586.412,879.6l-19.7,13.868,19.817-11.442-19.776,14.434,19.869-11.471-19.84,13.671,19.892-11.485-19.883,13.785L586.7,889.465l-19.9,13.6,10.554-6.094-9.68,7.37,11.13-6.426-10.477,8.323,14.415-8.323-14.409,10.9,18.526-10.7-18.519,13.515,18.486-10.673L568.343,913.63,586.8,902.974l-18.45,13.679,18.415-10.632-18.408,13.538,18.349-10.594-18.341,13.766L586.6,912.2,568.374,926,586.5,915.538l-18.116,12.588,18.047-10.419" fill="none" stroke="#5bd0f5" stroke-linecap="round" stroke-linejoin="round" stroke-width="1.435"/>
        <line id="Line_6" data-name="Line 6" y1="0.408" x2="0.707" transform="translate(559.623 928.726)" fill="none" stroke="#5bd0f5" stroke-linecap="round" stroke-linejoin="round" stroke-width="1.435"/>
        <path id="Path_100" data-name="Path 100" d="M528.306,911.368l.73-.421-.724,3.729,16.706-9.645-16.7,11.382,16.691-9.636-16.687,11.529L545,908.673l-16.677,12.566L545,911.614,528.33,923.558,545,913.932l-16.666,12.836,19.281-11.132L528.341,929.07l19.543-11.283-19.538,13.943L547.9,920.442l-19.544,14.044,19.555-11.29-19.552,13.033,19.559-11.292L528.36,939.155l19.565-11.3-17.694,13.428,19.488-11.251-13.906,11.21,19.416-11.21-18.739,13.335,23.1-13.335L536.52,946.512l30.89-17.834-29.171,19.278L586.313,920.2l-43.131,27.748,42.984-24.817L548.2,947.941l37.814-21.832L551.3,947.937l34.626-19.991-29.239,19.983L585.843,931.1l-24.079,16.826,15.365-8.871-9.926,8.863,9.942-5.74-4.842,5.732,4.857-2.8-.7,2.8.717-.414" fill="none" stroke="#5bd0f5" stroke-linecap="round" stroke-linejoin="round" stroke-width="1.435"/>
        <path id="Path_101" data-name="Path 101" d="M534.667,855.479l6.576-3.8-10.765,9.175,18.5-10.682L528.461,865.3l26.912-15.537-27.924,19.346,33.236-19.189-33.62,21.2L563.3,850.2l-36.779,24.364,40.947-23.641-41.3,26.793,44.74-25.831-44.945,27.87,46.85-27.049L525.8,882.159l49.161-28.383-49.3,30.418,22.232-12.836-22.33,14.715,21.344-12.323L525.448,889.14l20.636-11.914-20.729,14.521L545.7,880l-20.37,13.812,20.217-11.673L525.3,896.357l20.11-11.61-20.137,14.027L545.316,887.2l-20.04,13.287,19.984-11.538L525.276,902.78l19.922-11.5-19.922,14.785L545.129,894.6l-19.853,13.246L545.1,896.4l-17.338,11.87,17.313-10-13.343,9.968,13.314-7.687-11.071,9.679,11.048-6.378" fill="none" stroke="#5bd0f5" stroke-linecap="round" stroke-linejoin="round" stroke-width="1.435"/>
        <path id="Path_102" data-name="Path 102" d="M644.829,925.99l8.031-4.637-4.33,4.611,4.339-2.505-.715,2.48.724-.418" fill="none" stroke="#5bd0f5" stroke-linecap="round" stroke-linejoin="round" stroke-width="1.435"/>
        <path id="Path_103" data-name="Path 103" d="M616.411,928.944l29.4-16.975L619.48,928.931l29.278-16.9-25.228,16.886L652.82,912,626.8,928.9l26.031-15.029-22.735,15.175,22.743-13.131L630.1,932.3l22.747-13.133-22.738,16,14.018-8.093-14.01,10.649,16.233-9.372L630.129,940.5l17.069-9.855-17.064,11.672,17.069-9.855-17.06,12.859,17.068-9.854-17.06,12.423,17.068-9.854-11.619,9.9,11.629-6.714-7.785,6.7,7.791-4.5-3.5,4.477,3.509-2.026" fill="none" stroke="#5bd0f5" stroke-linecap="round" stroke-linejoin="round" stroke-width="1.435"/>
        <path id="Path_104" data-name="Path 104" d="M627.743,886.975,645.888,876.5l-13.317,10.752,13.317-7.689" fill="none" stroke="#5bd0f5" stroke-linecap="round" stroke-linejoin="round" stroke-width="1.435"/>
        <path id="Path_105" data-name="Path 105" d="M624.452,889.154l2.441-1.409-.091,2.764,2.172-1.254-2.167,3.339,19.081-11.017-19.074,13.888,19.074-11.012-19.066,14.074,19.066-11.008-19.057,14.216,19.057-11-19.051,13.345,19.051-11L626.842,905.87l19.047-11-19.041,13.066,19.041-10.993L626.852,909.8l19.036-10.991L628.6,911.959l17.29-9.982L630,913.537l15.885-9.171" fill="none" stroke="#5bd0f5" stroke-linecap="round" stroke-linejoin="round" stroke-width="1.435"/>
        <path id="Path_106" data-name="Path 106" d="M594.272,927.289l.72-.416-.679,2.751,4.82-2.783-2.982,3.693,28.721-16.582-24.306,16.582L629.3,913.945,603.89,930.534l42-24.248-37.9,24.248,37.887-21.874-34.279,21.874,34.24-19.769-30.8,19.768.7-.405" fill="none" stroke="#5bd0f5" stroke-linecap="round" stroke-linejoin="round" stroke-width="1.435"/>
        <path id="Path_107" data-name="Path 107" d="M596.4,887.477l.706-.408-.219,2.134,3.7-2.134-.453,2.117,3.666-2.117.217,2.1,3.631-2.1.092,2.375.31-.179-2.388,4.55,7.89-4.556-9.081,7.063,12.239-7.066-13.993,10.765,18.654-10.77-20.616,14.921,21.335-12.318-22.57,14.94,21.263-12.276-22.337,14.562,21.237-12.261L596.62,912.993l21.208-12.244-22.593,15.259,21.08-12.17L594.321,919.19l20.169-11.645-20.168,14.148,18.447-10.65-18.446,12.908,17.28-9.977-13.041,10.684,18.521-10.693-15.453,10.67L620.12,913.96l-17.914,12.45,21.574-12.456" fill="none" stroke="#5bd0f5" stroke-linecap="round" stroke-linejoin="round" stroke-width="1.435"/>
        <path id="Path_108" data-name="Path 108" d="M626.8,882.755l19.09-11.022-19.046,14.308,19.056-11" fill="none" stroke="#5bd0f5" stroke-linecap="round" stroke-linejoin="round" stroke-width="1.435"/>
        <path id="Path_109" data-name="Path 109" d="M626.425,850.371l1-.575-2.952,4.664,8.106-4.68L622.3,858.992l15.984-9.229L620.17,863.445l23.729-13.7-24.91,16.171,26.9-15.531-28.966,19.853,28.968-16.725-30.913,20.8,30.915-17.849-32.181,20.5,32.183-18.581-33.7,21.764,33.7-19.458-34.983,22.151,34.984-20.2-36.173,22.707L645.9,864.466,612.072,887,645.9,867.466l-29.376,19.514L645.9,870.018l-25.8,16.947,6.1-3.524-1.924,3.639.11-.064" fill="none" stroke="#5bd0f5" stroke-linecap="round" stroke-linejoin="round" stroke-width="1.435"/>
      </g>
    </g>
  </g>
  <text id="_404" data-name="404" transform="translate(18.933 118)" fill="#6180e8" font-size="140.568" font-family="HACKED"><tspan x="0" y="0">404</tspan></text>
  <text id="Pairs_not_found" data-name="Pairs not found" transform="translate(0 180.502)" fill="#6180e8" font-size="31.619" font-family="Rubik-Medium, Rubik" font-weight="500"><tspan x="0" y="0">Pairs not found</tspan></text>
</svg>
